<svg width="22" height="22" viewBox="0 0 22 22" fill="none" xmlns="http://www.w3.org/2000/svg">
<path fill-rule="evenodd" clip-rule="evenodd" d="M21.0836 0H0.917125C0.410437 0 0 0.410438 0 0.916438V21.0836C0 21.5896 0.410437 22 0.917125 22H11.6875V13.75H8.9375V10.3125H11.6875V7.5625C11.6875 4.72106 13.4867 3.32269 16.0215 3.32269C17.2356 3.32269 18.2793 3.41344 18.5831 3.45331V6.42331L16.8252 6.424C15.4467 6.424 15.125 7.07919 15.125 8.04031V10.3125H18.5625L17.875 13.75H15.125L15.18 22H21.0836C21.5896 22 22 21.5896 22 21.0836V0.916438C22 0.410438 21.5896 0 21.0836 0Z" fill="#FFFBFB"/>
<mask id="mask0" mask-type="alpha" maskUnits="userSpaceOnUse" x="0" y="0" width="22" height="22">
<path fill-rule="evenodd" clip-rule="evenodd" d="M21.0836 0H0.917125C0.410437 0 0 0.410438 0 0.916438V21.0836C0 21.5896 0.410437 22 0.917125 22H11.6875V13.75H8.9375V10.3125H11.6875V7.5625C11.6875 4.72106 13.4867 3.32269 16.0215 3.32269C17.2356 3.32269 18.2793 3.41344 18.5831 3.45331V6.42331L16.8252 6.424C15.4467 6.424 15.125 7.07919 15.125 8.04031V10.3125H18.5625L17.875 13.75H15.125L15.18 22H21.0836C21.5896 22 22 21.5896 22 21.0836V0.916438C22 0.410438 21.5896 0 21.0836 0Z" fill="white"/>
</mask>
<g mask="url(#mask0)">
<rect width="40.6154" height="40.6154" fill="#F2F2F2"/>
</g>
</svg>
