<svg fill="none" height="22" viewBox="0 0 22 22" width="22" xmlns="http://www.w3.org/2000/svg" xmlns:xlink="http://www.w3.org/1999/xlink"><mask id="a" height="22" maskUnits="userSpaceOnUse" width="22" x="0" y="0"><path clip-rule="evenodd" d="m18.7474 18.7461h-3.2629v-5.1054c0-1.2176-.0206-2.7837-1.6953-2.7837-1.6975 0-1.9567 1.3269-1.9567 2.6964v5.1927h-3.25939v-10.49885h3.12809v1.4355h.0447c.4352-.82569 1.4995-1.69606 3.0869-1.69606 3.3041 0 3.9146 2.17391 3.9146 5.00161zm-13.85315-11.93297c-1.04844 0-1.89337-.84769-1.89337-1.89269 0-1.04431.84493-1.892 1.89337-1.892 1.04363 0 1.89131.84769 1.89131 1.892 0 1.045-.84768 1.89269-1.89131 1.89269zm1.63224 11.93297h-3.26631v-10.49885h3.26631zm14.55711-18.7461h-20.166475c-.506688 0-.917125.410438-.917125.916438v20.166462c0 .5067.410437.9171.917125.9171h20.166475c.506 0 .9164-.4104.9164-.9171v-20.166462c0-.506-.4104-.916438-.9164-.916438z" fill="#fff" fill-rule="evenodd"/></mask><path clip-rule="evenodd" d="m18.7474 18.7461h-3.2629v-5.1054c0-1.2176-.0206-2.7837-1.6953-2.7837-1.6975 0-1.9567 1.3269-1.9567 2.6964v5.1927h-3.25939v-10.49885h3.12809v1.4355h.0447c.4352-.82569 1.4995-1.69606 3.0869-1.69606 3.3041 0 3.9146 2.17391 3.9146 5.00161zm-13.85315-11.93297c-1.04844 0-1.89337-.84769-1.89337-1.89269 0-1.04431.84493-1.892 1.89337-1.892 1.04363 0 1.89131.84769 1.89131 1.892 0 1.045-.84768 1.89269-1.89131 1.89269zm1.63224 11.93297h-3.26631v-10.49885h3.26631zm14.55711-18.7461h-20.166475c-.506688 0-.917125.410438-.917125.916438v20.166462c0 .5067.410437.9171.917125.9171h20.166475c.506 0 .9164-.4104.9164-.9171v-20.166462c0-.506-.4104-.916438-.9164-.916438z" fill="#fffbfb" fill-rule="evenodd"/><g mask="url(#a)"><path d="m0 0h40.6154v40.6154h-40.6154z" fill="#f2f2f2"/></g></svg>