<svg width="28" height="23" viewBox="0 0 28 23" fill="none" xmlns="http://www.w3.org/2000/svg">
<path fill-rule="evenodd" clip-rule="evenodd" d="M27.0769 2.60446C26.081 3.04615 25.0098 3.34485 23.8861 3.47938C25.0335 2.79146 25.9143 1.70331 26.3289 0.406154C25.256 1.04246 24.0663 1.50446 22.8013 1.75408C21.7876 0.674385 20.3441 0 18.7465 0C15.6784 0 13.1915 2.48685 13.1915 5.555C13.1915 5.98992 13.2406 6.41385 13.3354 6.82085C8.71792 6.589 4.62508 4.37715 1.88523 1.01623C1.40715 1.837 1.133 2.79146 1.133 3.80938C1.133 5.73608 2.11369 7.43685 3.60377 8.43277C2.69331 8.404 1.837 8.15439 1.08815 7.73808C1.08731 7.76177 1.08731 7.78462 1.08731 7.80831C1.08731 10.4999 3.00215 12.7448 5.544 13.255C5.07777 13.3819 4.587 13.4496 4.08015 13.4496C3.72223 13.4496 3.37446 13.4149 3.03515 13.3506C3.74169 15.5574 5.79362 17.1634 8.22462 17.2082C6.32331 18.6983 3.92785 19.5859 1.32508 19.5859C0.876615 19.5859 0.434923 19.5597 0 19.5089C2.45808 21.0845 5.37815 22.0042 8.51569 22.0042C18.7338 22.0042 24.321 13.5393 24.321 6.19892C24.321 5.95777 24.3159 5.71831 24.3049 5.47969C25.3905 4.697 26.3323 3.71885 27.0769 2.60446Z" fill="#FFFBFB"/>
<mask id="mask0" mask-type="alpha" maskUnits="userSpaceOnUse" x="0" y="0" width="28" height="23">
<path fill-rule="evenodd" clip-rule="evenodd" d="M27.0769 2.60446C26.081 3.04615 25.0098 3.34485 23.8861 3.47938C25.0335 2.79146 25.9143 1.70331 26.3289 0.406154C25.256 1.04246 24.0663 1.50446 22.8013 1.75408C21.7876 0.674385 20.3441 0 18.7465 0C15.6784 0 13.1915 2.48685 13.1915 5.555C13.1915 5.98992 13.2406 6.41385 13.3354 6.82085C8.71792 6.589 4.62508 4.37715 1.88523 1.01623C1.40715 1.837 1.133 2.79146 1.133 3.80938C1.133 5.73608 2.11369 7.43685 3.60377 8.43277C2.69331 8.404 1.837 8.15439 1.08815 7.73808C1.08731 7.76177 1.08731 7.78462 1.08731 7.80831C1.08731 10.4999 3.00215 12.7448 5.544 13.255C5.07777 13.3819 4.587 13.4496 4.08015 13.4496C3.72223 13.4496 3.37446 13.4149 3.03515 13.3506C3.74169 15.5574 5.79362 17.1634 8.22462 17.2082C6.32331 18.6983 3.92785 19.5859 1.32508 19.5859C0.876615 19.5859 0.434923 19.5597 0 19.5089C2.45808 21.0845 5.37815 22.0042 8.51569 22.0042C18.7338 22.0042 24.321 13.5393 24.321 6.19892C24.321 5.95777 24.3159 5.71831 24.3049 5.47969C25.3905 4.697 26.3323 3.71885 27.0769 2.60446Z" fill="white"/>
</mask>
<g mask="url(#mask0)">
<rect width="40.6154" height="40.6154" fill="#F2F2F2"/>
</g>
</svg>
