<svg width="31" height="22" viewBox="0 0 31 22" fill="none" xmlns="http://www.w3.org/2000/svg">
<path fill-rule="evenodd" clip-rule="evenodd" d="M27.3158 0.644735C28.6414 1.0061 29.6743 2.04571 30.0272 3.37353C30.6685 5.7817 30.6685 10.8037 30.6685 10.8037C30.6685 10.8037 30.6685 15.8256 30.0272 18.2338C29.6743 19.5616 28.6414 20.6012 27.3158 20.9626C24.9181 21.6073 15.3342 21.6073 15.3342 21.6073C15.3342 21.6073 5.75034 21.6073 3.35262 20.9626C2.02709 20.6012 0.994115 19.5616 0.64125 18.2338C0 15.8256 0 10.8037 0 10.8037C0 10.8037 0 5.7817 0.64125 3.37353C0.994115 2.04571 2.02709 1.0061 3.35262 0.644735C5.75034 0 15.3342 0 15.3342 0C15.3342 0 24.9181 0 27.3158 0.644735ZM20.2134 10.8038L12.1978 15.364V6.24365L20.2134 10.8038Z" fill="#F2F2F2"/>
</svg>
